<svg xmlns="http://www.w3.org/2000/svg" width="416" height="294" viewBox="0 0 416 294" role="img" aria-label="Danoosh signature">
<title>Danoosh signature</title>
<path fill="currentColor" fill-rule="evenodd" d="M 206.00 34.78 L 207.00 34.69 L 208.00 34.68 L 209.00 34.67 L 210.00 34.67 L 211.00 34.72 L 211.95 35.00 L 212.00 35.02 L 213.00 35.51 L 213.84 36.00 L 214.00 36.14 L 215.00 36.75 L 215.25 37.00 L 216.00 37.75 L 216.25 38.00 L 217.00 38.72 L 217.28 39.00 L 217.52 40.00 L 217.72 41.00 L 218.00 41.83 L 218.08 42.00 L 218.05 43.00 L 218.05 44.00 L 218.00 44.31 L 217.90 45.00 L 217.57 46.00 L 217.45 47.00 L 217.28 48.00 L 217.00 48.39 L 216.63 49.00 L 216.44 50.00 L 216.00 50.90 L 215.92 51.00 L 215.48 52.00 L 215.31 53.00 L 215.00 53.42 L 214.61 54.00 L 214.34 55.00 L 214.00 55.47 L 213.63 56.00 L 213.36 57.00 L 213.00 57.47 L 212.61 58.00 L 212.29 59.00 L 212.00 59.36 L 211.57 60.00 L 211.25 61.00 L 211.00 61.26 L 210.50 62.00 L 210.05 63.00 L 210.00 63.05 L 209.41 64.00 L 209.00 64.55 L 208.63 65.00 L 208.39 66.00 L 208.00 66.47 L 207.56 67.00 L 207.00 67.91 L 206.92 68.00 L 206.38 69.00 L 206.00 69.44 L 205.53 70.00 L 205.05 71.00 L 205.00 71.05 L 204.43 72.00 L 204.00 72.54 L 203.60 73.00 L 203.10 74.00 L 203.00 74.11 L 202.43 75.00 L 202.00 75.55 L 201.62 76.00 L 201.10 77.00 L 201.00 77.10 L 200.35 78.00 L 200.00 78.40 L 199.40 79.00 L 199.00 79.41 L 198.54 80.00 L 198.00 80.73 L 197.72 81.00 L 197.00 81.62 L 196.64 82.00 L 196.00 82.93 L 195.93 83.00 L 195.03 84.00 L 195.00 84.03 L 194.36 85.00 L 194.00 85.42 L 193.53 86.00 L 193.00 86.65 L 192.67 87.00 L 192.22 88.00 L 192.00 88.29 L 191.57 89.00 L 191.00 89.77 L 190.77 90.00 L 190.00 90.81 L 189.80 91.00 L 189.00 91.65 L 188.66 92.00 L 188.00 92.77 L 187.77 93.00 L 187.00 93.85 L 186.85 94.00 L 186.00 94.89 L 185.89 95.00 L 185.00 95.98 L 184.98 96.00 L 184.00 96.89 L 183.89 97.00 L 183.00 97.98 L 182.98 98.00 L 182.08 99.00 L 182.00 99.08 L 181.48 100.00 L 181.00 100.78 L 180.79 101.00 L 180.00 101.73 L 179.63 102.00 L 179.00 102.37 L 178.00 103.00 L 177.00 103.89 L 176.89 104.00 L 176.00 104.85 L 175.84 105.00 L 175.00 105.71 L 174.69 106.00 L 174.00 106.55 L 173.48 107.00 L 173.00 107.42 L 172.26 108.00 L 172.00 108.24 L 171.18 109.00 L 171.00 109.18 L 170.15 110.00 L 170.00 110.15 L 169.00 110.87 L 168.84 111.00 L 168.00 111.52 L 167.43 112.00 L 167.00 112.37 L 166.00 112.82 L 165.80 113.00 L 165.00 113.60 L 164.54 114.00 L 164.00 114.44 L 163.31 115.00 L 163.00 115.28 L 162.00 115.81 L 161.77 116.00 L 161.00 116.52 L 160.35 117.00 L 160.00 117.28 L 159.00 117.86 L 158.84 118.00 L 158.00 118.62 L 157.51 119.00 L 157.00 119.37 L 156.00 120.00 L 155.00 120.70 L 154.60 121.00 L 154.00 121.40 L 153.00 121.92 L 152.89 122.00 L 152.00 122.50 L 151.29 123.00 L 151.00 123.23 L 150.00 123.70 L 149.63 124.00 L 149.00 124.48 L 148.03 125.00 L 148.00 125.03 L 147.00 125.59 L 146.52 126.00 L 146.00 126.43 L 145.25 127.00 L 145.00 127.22 L 144.00 127.70 L 143.55 128.00 L 143.00 128.35 L 142.00 128.92 L 141.89 129.00 L 141.00 129.47 L 140.26 130.00 L 140.00 130.22 L 139.00 130.63 L 138.32 131.00 L 138.00 131.22 L 137.00 131.75 L 136.69 132.00 L 136.00 132.47 L 135.14 133.00 L 135.00 133.11 L 134.00 133.77 L 133.72 134.00 L 133.00 134.49 L 132.26 135.00 L 132.00 135.22 L 131.00 135.69 L 130.58 136.00 L 130.00 136.42 L 129.27 137.00 L 129.00 137.25 L 128.00 137.94 L 127.94 138.00 L 127.00 138.79 L 126.76 139.00 L 126.00 139.60 L 125.39 140.00 L 125.00 140.28 L 124.00 140.63 L 123.51 141.00 L 123.00 141.41 L 122.27 142.00 L 122.00 142.25 L 121.11 143.00 L 121.00 143.10 L 120.00 143.55 L 119.31 144.00 L 119.00 144.28 L 118.46 145.00 L 118.00 146.00 L 117.56 147.00 L 117.37 148.00 L 117.00 148.52 L 116.65 149.00 L 116.44 150.00 L 116.28 151.00 L 116.00 151.44 L 115.68 152.00 L 115.43 153.00 L 115.00 154.00 L 114.54 155.00 L 114.45 156.00 L 114.00 156.90 L 113.92 157.00 L 113.31 158.00 L 113.00 158.43 L 112.63 159.00 L 112.53 160.00 L 112.47 161.00 L 112.41 162.00 L 112.18 163.00 L 112.00 163.34 L 111.70 164.00 L 111.00 164.66 L 110.00 164.98 L 109.00 164.82 L 108.00 164.33 L 107.67 164.00 L 107.14 163.00 L 107.14 162.00 L 107.43 161.00 L 107.50 160.00 L 107.61 159.00 L 108.00 158.15 L 108.10 158.00 L 108.44 157.00 L 108.59 156.00 L 109.00 155.19 L 109.14 155.00 L 109.48 154.00 L 109.46 153.00 L 109.00 152.54 L 108.00 152.75 L 107.72 153.00 L 107.00 153.58 L 106.51 154.00 L 106.00 154.43 L 105.37 155.00 L 105.00 155.37 L 104.45 156.00 L 104.00 156.48 L 103.28 157.00 L 103.00 157.24 L 102.08 158.00 L 102.00 158.08 L 101.00 158.92 L 100.89 159.00 L 100.00 159.50 L 99.44 160.00 L 99.00 160.41 L 98.42 161.00 L 98.00 161.42 L 97.39 162.00 L 97.00 162.39 L 96.41 163.00 L 96.00 163.42 L 95.39 164.00 L 95.00 164.38 L 94.25 165.00 L 94.00 165.24 L 93.18 166.00 L 93.00 166.18 L 92.33 167.00 L 92.00 167.36 L 91.49 168.00 L 91.00 168.67 L 90.69 169.00 L 90.00 169.78 L 89.77 170.00 L 89.00 170.60 L 88.60 171.00 L 88.00 171.63 L 87.64 172.00 L 87.00 172.71 L 86.72 173.00 L 86.00 173.91 L 85.92 174.00 L 85.25 175.00 L 85.00 175.25 L 84.28 176.00 L 84.00 176.28 L 83.21 177.00 L 83.00 177.21 L 82.25 178.00 L 82.00 178.26 L 81.44 179.00 L 81.00 179.49 L 80.56 180.00 L 80.23 181.00 L 80.00 181.24 L 79.26 182.00 L 79.00 182.25 L 78.00 182.90 L 77.89 183.00 L 77.23 184.00 L 77.00 184.24 L 76.38 185.00 L 76.00 185.40 L 75.47 186.00 L 75.00 186.58 L 74.62 187.00 L 74.00 187.70 L 73.71 188.00 L 73.32 189.00 L 73.00 189.35 L 72.45 190.00 L 72.00 190.48 L 71.54 191.00 L 71.00 192.00 L 70.36 193.00 L 70.00 193.41 L 69.49 194.00 L 69.00 194.62 L 68.67 195.00 L 68.32 196.00 L 68.00 196.34 L 67.42 197.00 L 67.00 197.46 L 66.54 198.00 L 66.00 198.89 L 65.90 199.00 L 65.35 200.00 L 65.00 200.41 L 64.54 201.00 L 64.00 201.82 L 63.83 202.00 L 63.25 203.00 L 63.00 203.27 L 62.50 204.00 L 62.00 204.86 L 61.87 205.00 L 61.31 206.00 L 61.00 206.33 L 60.50 207.00 L 60.00 208.00 L 59.36 209.00 L 59.00 209.43 L 58.58 210.00 L 58.28 211.00 L 58.00 211.32 L 57.53 212.00 L 57.00 212.89 L 56.90 213.00 L 56.39 214.00 L 56.00 214.60 L 55.70 215.00 L 55.33 216.00 L 55.00 216.39 L 54.55 217.00 L 54.03 218.00 L 54.00 218.03 L 53.48 219.00 L 53.00 219.81 L 52.84 220.00 L 52.47 221.00 L 52.00 221.91 L 51.92 222.00 L 51.46 223.00 L 51.05 224.00 L 51.00 224.05 L 50.50 225.00 L 50.10 226.00 L 50.00 226.13 L 49.55 227.00 L 49.29 228.00 L 49.00 228.38 L 48.60 229.00 L 48.37 230.00 L 48.00 230.60 L 47.72 231.00 L 47.44 232.00 L 47.00 232.87 L 46.90 233.00 L 46.51 234.00 L 46.36 235.00 L 46.00 235.67 L 45.79 236.00 L 45.48 237.00 L 45.25 238.00 L 45.00 238.44 L 44.70 239.00 L 44.51 240.00 L 44.41 241.00 L 44.05 242.00 L 44.00 242.09 L 43.65 243.00 L 43.55 244.00 L 43.47 245.00 L 43.44 246.00 L 43.44 247.00 L 43.43 248.00 L 43.46 249.00 L 43.48 250.00 L 43.62 251.00 L 44.00 251.62 L 44.28 252.00 L 44.72 253.00 L 45.00 253.28 L 46.00 253.75 L 46.33 254.00 L 47.00 254.40 L 48.00 254.49 L 49.00 254.50 L 50.00 254.50 L 51.00 254.52 L 52.00 254.97 L 52.03 255.00 L 52.00 255.19 L 51.89 256.00 L 51.00 256.48 L 50.00 256.58 L 49.00 256.77 L 48.00 256.69 L 47.00 256.55 L 46.00 256.49 L 45.00 256.29 L 44.65 256.00 L 44.00 255.56 L 43.13 255.00 L 43.00 254.87 L 42.00 254.28 L 41.72 254.00 L 41.00 253.23 L 40.77 253.00 L 40.31 252.00 L 40.00 251.62 L 39.57 251.00 L 39.53 250.00 L 39.43 249.00 L 39.42 248.00 L 39.42 247.00 L 39.42 246.00 L 39.42 245.00 L 39.44 244.00 L 39.47 243.00 L 39.55 242.00 L 39.61 241.00 L 40.00 240.15 L 40.10 240.00 L 40.45 239.00 L 40.61 238.00 L 41.00 237.15 L 41.10 237.00 L 41.45 236.00 L 41.56 235.00 L 41.90 234.00 L 42.00 233.88 L 42.46 233.00 L 42.68 232.00 L 43.00 231.57 L 43.39 231.00 L 43.58 230.00 L 44.00 229.25 L 44.19 229.00 L 44.54 228.00 L 44.97 227.00 L 45.00 226.97 L 45.51 226.00 L 45.84 225.00 L 46.00 224.83 L 46.51 224.00 L 47.00 223.09 L 47.08 223.00 L 47.50 222.00 L 47.92 221.00 L 48.00 220.92 L 48.51 220.00 L 48.80 219.00 L 49.00 218.76 L 49.47 218.00 L 50.00 217.14 L 50.13 217.00 L 50.59 216.00 L 51.00 215.47 L 51.39 215.00 L 51.72 214.00 L 52.00 213.68 L 52.47 213.00 L 53.00 212.09 L 53.08 212.00 L 53.59 211.00 L 54.00 210.44 L 54.35 210.00 L 54.80 209.00 L 55.00 208.79 L 55.51 208.00 L 56.00 207.07 L 56.06 207.00 L 56.60 206.00 L 57.00 205.52 L 57.43 205.00 L 58.00 204.02 L 58.02 204.00 L 58.64 203.00 L 59.00 202.58 L 59.46 202.00 L 60.00 201.00 L 60.60 200.00 L 61.00 199.54 L 61.46 199.00 L 62.00 198.21 L 62.19 198.00 L 62.64 197.00 L 63.00 196.58 L 63.47 196.00 L 64.00 195.23 L 64.22 195.00 L 64.68 194.00 L 65.00 193.66 L 65.52 193.00 L 66.00 192.38 L 66.36 192.00 L 67.00 191.14 L 67.13 191.00 L 67.72 190.00 L 68.00 189.71 L 68.55 189.00 L 69.00 188.48 L 69.44 188.00 L 70.00 187.25 L 70.24 187.00 L 70.85 186.00 L 71.00 185.85 L 71.62 185.00 L 72.00 184.60 L 72.54 184.00 L 73.00 183.47 L 73.42 183.00 L 74.00 182.28 L 74.27 182.00 L 74.92 181.00 L 75.00 180.92 L 75.69 180.00 L 76.00 179.67 L 76.57 179.00 L 77.00 178.54 L 77.52 178.00 L 78.00 177.48 L 78.45 177.00 L 79.00 176.39 L 79.36 176.00 L 80.00 175.17 L 80.17 175.00 L 80.97 174.00 L 81.00 173.97 L 81.72 173.00 L 82.00 172.72 L 82.66 172.00 L 83.00 171.65 L 83.62 171.00 L 84.00 170.61 L 84.61 170.00 L 85.00 169.61 L 85.59 169.00 L 86.00 168.58 L 86.57 168.00 L 87.00 167.56 L 87.51 167.00 L 88.00 166.43 L 88.41 166.00 L 89.00 165.38 L 89.38 165.00 L 90.00 164.38 L 90.38 164.00 L 91.00 163.38 L 91.38 163.00 L 92.00 162.37 L 92.37 162.00 L 93.00 161.39 L 93.39 161.00 L 94.00 160.41 L 94.42 160.00 L 95.00 159.44 L 95.46 159.00 L 96.00 158.51 L 96.59 158.00 L 97.00 157.62 L 97.63 157.00 L 98.00 156.64 L 98.69 156.00 L 99.00 155.70 L 99.84 155.00 L 100.00 154.85 L 101.00 154.16 L 101.17 154.00 L 102.00 153.24 L 102.25 153.00 L 103.00 152.40 L 103.46 152.00 L 104.00 151.55 L 104.60 151.00 L 105.00 150.61 L 105.80 150.00 L 106.00 149.82 L 107.00 149.06 L 107.07 149.00 L 108.00 148.36 L 108.39 148.00 L 109.00 147.47 L 109.53 147.00 L 110.00 146.58 L 110.83 146.00 L 111.00 145.85 L 112.00 145.19 L 112.21 145.00 L 113.00 144.27 L 113.26 144.00 L 113.67 143.00 L 114.00 142.55 L 114.38 142.00 L 114.54 141.00 L 115.00 140.02 L 115.02 140.00 L 115.49 139.00 L 115.85 138.00 L 116.00 137.83 L 116.47 137.00 L 116.66 136.00 L 117.00 135.49 L 117.33 135.00 L 117.56 134.00 L 118.00 133.02 L 118.02 133.00 L 118.47 132.00 L 118.67 131.00 L 119.00 130.56 L 119.39 130.00 L 119.58 129.00 L 120.00 128.35 L 120.28 128.00 L 120.55 127.00 L 121.00 126.02 L 121.02 126.00 L 121.48 125.00 L 121.84 124.00 L 122.00 123.82 L 122.48 123.00 L 122.66 122.00 L 123.00 121.56 L 123.40 121.00 L 123.59 120.00 L 124.00 119.24 L 124.18 119.00 L 124.53 118.00 L 125.00 117.15 L 125.13 117.00 L 125.50 116.00 L 125.72 115.00 L 126.00 114.63 L 126.39 114.00 L 126.61 113.00 L 127.00 112.40 L 127.30 112.00 L 127.54 111.00 L 128.00 110.02 L 128.02 110.00 L 128.49 109.00 L 128.69 108.00 L 129.00 107.59 L 129.39 107.00 L 129.62 106.00 L 130.00 105.44 L 130.33 105.00 L 130.53 104.00 L 130.80 103.00 L 131.00 102.74 L 131.42 102.00 L 131.64 101.00 L 132.00 100.50 L 132.36 100.00 L 132.55 99.00 L 133.00 98.08 L 133.06 98.00 L 133.48 97.00 L 133.71 96.00 L 134.00 95.63 L 134.41 95.00 L 134.61 94.00 L 135.00 93.50 L 135.40 93.00 L 135.67 92.00 L 136.00 91.41 L 136.25 91.00 L 136.47 90.00 L 136.59 89.00 L 137.00 88.25 L 137.19 88.00 L 137.53 87.00 L 137.78 86.00 L 138.00 85.70 L 138.40 85.00 L 138.59 84.00 L 139.00 83.38 L 139.30 83.00 L 139.55 82.00 L 139.85 81.00 L 140.00 80.82 L 140.46 80.00 L 140.63 79.00 L 141.00 78.40 L 141.28 78.00 L 141.51 77.00 L 141.69 76.00 L 142.00 75.58 L 142.38 75.00 L 142.59 74.00 L 143.00 73.17 L 143.13 73.00 L 143.48 72.00 L 143.47 71.00 L 143.00 70.53 L 142.00 70.98 L 141.98 71.00 L 141.00 71.52 L 140.40 72.00 L 140.00 72.34 L 139.00 72.98 L 138.98 73.00 L 138.00 73.49 L 137.37 74.00 L 137.00 74.34 L 136.29 75.00 L 136.00 75.29 L 135.00 75.73 L 134.67 76.00 L 134.00 76.50 L 133.47 77.00 L 133.00 77.43 L 132.17 78.00 L 132.00 78.16 L 131.00 78.81 L 130.79 79.00 L 130.00 79.52 L 129.32 80.00 L 129.00 80.27 L 128.00 80.77 L 127.74 81.00 L 127.00 81.52 L 126.48 82.00 L 126.00 82.43 L 125.11 83.00 L 125.00 83.10 L 124.00 83.76 L 123.73 84.00 L 123.00 84.50 L 122.19 85.00 L 122.00 85.15 L 121.00 85.74 L 120.73 86.00 L 120.00 86.68 L 119.65 87.00 L 119.00 87.49 L 118.33 88.00 L 118.00 88.29 L 117.08 89.00 L 117.00 89.08 L 116.00 89.66 L 115.53 90.00 L 115.00 90.36 L 114.05 91.00 L 114.00 91.05 L 113.00 91.73 L 112.72 92.00 L 112.00 92.65 L 111.64 93.00 L 111.00 93.59 L 110.46 94.00 L 110.00 94.33 L 109.03 95.00 L 109.00 95.03 L 108.00 95.76 L 107.74 96.00 L 107.00 96.55 L 106.47 97.00 L 106.00 97.40 L 105.08 98.00 L 105.00 98.08 L 104.00 98.59 L 103.52 99.00 L 103.00 99.42 L 102.12 100.00 L 102.00 100.10 L 101.00 100.57 L 100.52 101.00 L 100.00 101.44 L 99.27 102.00 L 99.00 102.25 L 98.00 102.82 L 97.77 103.00 L 97.00 103.47 L 96.33 104.00 L 96.00 104.29 L 95.00 104.87 L 94.86 105.00 L 94.00 105.70 L 93.62 106.00 L 93.00 106.42 L 92.11 107.00 L 92.00 107.10 L 91.00 107.54 L 90.01 108.00 L 89.00 108.63 L 88.56 109.00 L 88.00 109.43 L 87.24 110.00 L 87.00 110.22 L 86.00 110.57 L 85.01 111.00 L 84.00 111.37 L 83.00 111.58 L 82.00 111.59 L 81.00 111.59 L 80.00 111.59 L 79.00 111.60 L 78.00 111.59 L 77.00 111.43 L 76.15 111.00 L 76.00 110.90 L 75.00 110.18 L 74.82 110.00 L 74.00 109.21 L 73.80 109.00 L 73.33 108.00 L 73.00 107.53 L 72.64 107.00 L 72.53 106.00 L 72.53 105.00 L 72.60 104.00 L 72.73 103.00 L 72.90 102.00 L 73.00 101.81 L 73.33 101.00 L 73.50 100.00 L 73.64 99.00 L 74.00 98.30 L 74.19 98.00 L 74.51 97.00 L 74.72 96.00 L 75.00 95.62 L 75.39 95.00 L 75.57 94.00 L 76.00 93.33 L 76.27 93.00 L 76.55 92.00 L 77.00 91.29 L 77.26 91.00 L 77.62 90.00 L 78.00 89.50 L 78.39 89.00 L 78.67 88.00 L 79.00 87.63 L 79.48 87.00 L 80.00 86.09 L 80.08 86.00 L 80.61 85.00 L 81.00 84.57 L 81.48 84.00 L 82.00 83.17 L 82.16 83.00 L 82.71 82.00 L 83.00 81.70 L 83.53 81.00 L 84.00 80.44 L 84.42 80.00 L 85.00 79.31 L 85.29 79.00 L 85.90 78.00 L 86.00 77.90 L 86.64 77.00 L 87.00 76.62 L 87.57 76.00 L 88.00 75.56 L 88.55 75.00 L 89.00 74.51 L 89.45 74.00 L 90.00 73.38 L 90.37 73.00 L 91.00 72.36 L 91.36 72.00 L 92.00 71.36 L 92.36 71.00 L 93.00 70.40 L 93.40 70.00 L 94.00 69.43 L 94.49 69.00 L 95.00 68.55 L 95.56 68.00 L 96.00 67.56 L 96.57 67.00 L 97.00 66.59 L 97.63 66.00 L 98.00 65.64 L 98.72 65.00 L 99.00 64.72 L 100.00 64.10 L 100.10 64.00 L 101.00 63.29 L 101.30 63.00 L 102.00 62.45 L 102.49 62.00 L 103.00 61.54 L 103.68 61.00 L 104.00 60.69 L 104.92 60.00 L 105.00 59.92 L 106.00 59.23 L 106.24 59.00 L 107.00 58.48 L 107.63 58.00 L 108.00 57.67 L 109.00 57.10 L 109.10 57.00 L 110.00 56.41 L 110.47 56.00 L 111.00 55.56 L 111.92 55.00 L 112.00 54.92 L 113.00 54.47 L 113.63 54.00 L 114.00 53.67 L 115.00 53.33 L 115.39 53.00 L 116.00 52.56 L 117.00 52.08 L 117.09 52.00 L 118.00 51.50 L 118.71 51.00 L 119.00 50.73 L 120.00 50.43 L 120.62 50.00 L 121.00 49.69 L 122.00 49.40 L 122.67 49.00 L 123.00 48.75 L 124.00 48.48 L 124.91 48.00 L 125.00 47.92 L 126.00 47.56 L 127.00 47.38 L 127.76 47.00 L 128.00 46.84 L 129.00 46.52 L 130.00 46.34 L 130.65 46.00 L 131.00 45.78 L 132.00 45.56 L 133.00 45.54 L 134.00 45.47 L 135.00 45.41 L 136.00 45.41 L 137.00 45.39 L 138.00 45.38 L 139.00 45.42 L 140.00 45.44 L 141.00 45.51 L 142.00 45.57 L 142.87 46.00 L 143.00 46.10 L 144.00 46.53 L 144.68 47.00 L 145.00 47.29 L 146.00 47.89 L 146.11 48.00 L 147.00 48.80 L 147.21 49.00 L 148.00 49.60 L 148.44 50.00 L 149.00 50.55 L 149.41 51.00 L 150.00 52.00 L 150.49 53.00 L 150.79 54.00 L 151.00 54.35 L 151.34 55.00 L 151.47 56.00 L 152.00 56.50 L 152.73 56.00 L 153.00 55.69 L 153.86 55.00 L 154.00 54.89 L 154.28 55.00 L 155.00 55.25 L 156.00 55.84 L 156.18 56.00 L 157.00 56.46 L 158.00 56.16 L 158.18 56.00 L 159.00 55.51 L 159.83 55.00 L 160.00 54.84 L 161.00 54.35 L 161.46 54.00 L 162.00 53.62 L 163.00 53.10 L 163.11 53.00 L 164.00 52.51 L 164.97 52.00 L 165.00 51.97 L 166.00 51.45 L 166.66 51.00 L 167.00 50.71 L 168.00 50.42 L 168.62 50.00 L 169.00 49.69 L 170.00 49.40 L 170.60 49.00 L 171.00 48.69 L 172.00 48.34 L 172.44 48.00 L 173.00 47.60 L 174.00 47.27 L 174.36 47.00 L 175.00 46.60 L 176.00 46.23 L 176.26 46.00 L 177.00 45.54 L 178.00 45.19 L 178.22 45.00 L 179.00 44.55 L 180.00 44.33 L 180.44 44.00 L 181.00 43.62 L 182.00 43.37 L 182.51 43.00 L 183.00 42.64 L 184.00 42.47 L 184.76 42.00 L 185.00 41.78 L 186.00 41.49 L 186.92 41.00 L 187.00 40.92 L 188.00 40.57 L 189.00 40.31 L 189.45 40.00 L 190.00 39.65 L 191.00 39.41 L 191.76 39.00 L 192.00 38.82 L 193.00 38.54 L 194.00 38.28 L 194.42 38.00 L 195.00 37.65 L 196.00 37.50 L 197.00 37.23 L 197.35 37.00 L 198.00 36.65 L 199.00 36.51 L 200.00 36.38 L 200.76 36.00 L 201.00 35.84 L 202.00 35.56 L 203.00 35.49 L 204.00 35.38 L 205.00 35.10 L 205.29 35.00 L 206.00 34.78 Z M 203.00 39.56 L 202.02 40.00 L 202.00 40.01 L 201.00 40.39 L 200.00 40.51 L 199.06 41.00 L 199.00 41.06 L 198.00 41.39 L 197.00 41.47 L 196.00 41.85 L 195.78 42.00 L 195.00 42.37 L 194.00 42.49 L 193.17 43.00 L 193.00 43.16 L 192.00 43.43 L 191.00 43.70 L 190.56 44.00 L 190.00 44.35 L 189.00 44.49 L 188.12 45.00 L 188.00 45.11 L 187.00 45.44 L 186.00 45.96 L 185.95 46.00 L 185.00 46.43 L 184.00 46.75 L 183.68 47.00 L 183.00 47.41 L 182.00 47.63 L 181.50 48.00 L 181.00 48.36 L 180.00 48.59 L 179.42 49.00 L 179.00 49.32 L 178.00 49.57 L 177.44 50.00 L 177.00 50.35 L 176.00 50.60 L 175.43 51.00 L 175.00 51.32 L 174.00 51.59 L 173.47 52.00 L 173.00 52.36 L 172.00 52.67 L 171.60 53.00 L 171.00 53.41 L 170.00 53.89 L 169.86 54.00 L 169.00 54.43 L 168.22 55.00 L 168.00 55.22 L 167.00 55.47 L 166.21 56.00 L 166.00 56.20 L 165.00 56.50 L 164.36 57.00 L 164.00 57.31 L 163.00 57.78 L 162.73 58.00 L 162.00 58.41 L 161.06 59.00 L 161.00 59.06 L 160.00 59.56 L 159.48 60.00 L 159.00 60.39 L 158.00 60.88 L 157.88 61.00 L 157.00 61.78 L 156.79 62.00 L 156.10 63.00 L 156.00 63.10 L 155.46 64.00 L 155.11 65.00 L 155.00 65.11 L 154.46 66.00 L 154.00 66.71 L 153.74 67.00 L 153.38 68.00 L 153.00 68.48 L 152.58 69.00 L 152.10 70.00 L 152.00 70.10 L 151.47 71.00 L 151.30 72.00 L 151.00 72.35 L 150.54 73.00 L 150.28 74.00 L 150.00 74.34 L 149.57 75.00 L 149.32 76.00 L 149.00 76.41 L 148.58 77.00 L 148.34 78.00 L 148.00 78.49 L 147.65 79.00 L 147.42 80.00 L 147.00 80.89 L 146.91 81.00 L 146.35 82.00 L 146.00 82.81 L 145.89 83.00 L 145.46 84.00 L 145.17 85.00 L 145.00 85.17 L 144.48 86.00 L 144.26 87.00 L 144.00 87.33 L 143.56 88.00 L 143.31 89.00 L 143.00 89.39 L 142.57 90.00 L 142.44 91.00 L 142.03 92.00 L 142.00 92.03 L 141.47 93.00 L 141.18 94.00 L 141.00 94.18 L 140.44 95.00 L 140.00 95.84 L 139.84 96.00 L 139.00 96.50 L 138.53 97.00 L 138.06 98.00 L 138.00 98.06 L 137.46 99.00 L 137.24 100.00 L 137.00 100.28 L 136.52 101.00 L 136.38 102.00 L 136.32 103.00 L 136.21 104.00 L 136.00 104.65 L 135.86 105.00 L 135.37 106.00 L 135.00 106.74 L 134.82 107.00 L 134.41 108.00 L 134.11 109.00 L 134.00 109.14 L 133.51 110.00 L 133.21 111.00 L 133.00 111.26 L 132.54 112.00 L 132.33 113.00 L 132.00 113.54 L 131.67 114.00 L 131.28 115.00 L 131.00 115.46 L 130.65 116.00 L 130.33 117.00 L 130.00 117.84 L 129.91 118.00 L 129.35 119.00 L 129.00 119.92 L 128.96 120.00 L 128.47 121.00 L 128.35 122.00 L 128.00 122.66 L 127.77 123.00 L 127.28 124.00 L 127.00 124.42 L 126.62 125.00 L 126.34 126.00 L 126.00 126.89 L 125.93 127.00 L 125.42 128.00 L 125.03 129.00 L 125.00 129.04 L 124.56 130.00 L 124.42 131.00 L 124.00 131.86 L 123.89 132.00 L 123.46 133.00 L 123.20 134.00 L 123.00 134.23 L 122.53 135.00 L 122.41 136.00 L 123.00 136.69 L 124.00 136.09 L 124.11 136.00 L 125.00 135.45 L 125.69 135.00 L 126.00 134.78 L 127.00 134.22 L 127.25 134.00 L 128.00 133.45 L 128.66 133.00 L 129.00 132.76 L 130.00 132.26 L 130.33 132.00 L 131.00 131.58 L 131.94 131.00 L 132.00 130.94 L 133.00 130.46 L 133.61 130.00 L 134.00 129.70 L 135.00 129.05 L 135.05 129.00 L 136.00 128.44 L 136.74 128.00 L 137.00 127.82 L 138.00 127.30 L 138.39 127.00 L 139.00 126.61 L 140.00 126.00 L 141.00 125.41 L 141.61 125.00 L 142.00 124.74 L 143.00 124.16 L 143.18 124.00 L 144.00 123.48 L 144.75 123.00 L 145.00 122.82 L 146.00 122.26 L 146.32 122.00 L 147.00 121.53 L 147.86 121.00 L 148.00 120.89 L 149.00 120.35 L 149.48 120.00 L 150.00 119.67 L 151.00 119.09 L 151.10 119.00 L 152.00 118.44 L 152.61 118.00 L 153.00 117.72 L 154.00 117.12 L 154.13 117.00 L 155.00 116.39 L 155.54 116.00 L 156.00 115.69 L 157.00 115.07 L 157.07 115.00 L 158.00 114.37 L 158.51 114.00 L 159.00 113.67 L 159.99 113.00 L 160.00 112.99 L 161.00 112.32 L 161.36 112.00 L 162.00 111.52 L 162.67 111.00 L 163.00 110.72 L 164.00 110.12 L 164.13 110.00 L 165.00 109.39 L 165.42 109.00 L 166.00 108.49 L 166.59 108.00 L 167.00 107.66 L 167.97 107.00 L 168.00 106.97 L 169.00 106.24 L 169.25 106.00 L 170.00 105.39 L 170.42 105.00 L 171.00 104.52 L 171.59 104.00 L 172.00 103.64 L 172.65 103.00 L 173.00 102.65 L 173.70 102.00 L 174.00 101.71 L 174.90 101.00 L 175.00 100.90 L 176.00 100.07 L 176.07 100.00 L 177.00 99.12 L 177.12 99.00 L 178.00 98.12 L 178.12 98.00 L 179.00 97.04 L 179.05 97.00 L 180.00 96.07 L 180.07 96.00 L 181.00 95.00 L 181.78 94.00 L 182.00 93.78 L 182.78 93.00 L 183.00 92.78 L 183.72 92.00 L 184.00 91.72 L 184.61 91.00 L 185.00 90.57 L 185.53 90.00 L 186.00 89.49 L 186.46 89.00 L 187.00 88.35 L 187.33 88.00 L 188.00 87.11 L 188.11 87.00 L 188.89 86.00 L 189.00 85.89 L 189.72 85.00 L 190.00 84.72 L 190.57 84.00 L 191.00 83.42 L 191.38 83.00 L 192.00 82.19 L 192.18 82.00 L 192.71 81.00 L 193.00 80.71 L 193.59 80.00 L 194.00 79.54 L 194.50 79.00 L 195.00 78.29 L 195.26 78.00 L 195.83 77.00 L 196.00 76.83 L 196.56 76.00 L 197.00 75.37 L 197.32 75.00 L 197.79 74.00 L 198.00 73.79 L 198.57 73.00 L 199.00 72.46 L 199.41 72.00 L 199.83 71.00 L 200.00 70.83 L 200.57 70.00 L 201.00 69.40 L 201.34 69.00 L 201.71 68.00 L 202.00 67.71 L 202.54 67.00 L 203.00 66.17 L 203.15 66.00 L 203.63 65.00 L 204.00 64.62 L 204.50 64.00 L 204.83 63.00 L 205.00 62.83 L 205.53 62.00 L 206.00 61.09 L 206.08 61.00 L 206.57 60.00 L 207.00 59.41 L 207.34 59.00 L 207.64 58.00 L 208.00 57.50 L 208.37 57.00 L 208.82 56.00 L 209.00 55.82 L 209.52 55.00 L 209.72 54.00 L 210.00 53.67 L 210.44 53.00 L 210.63 52.00 L 211.00 51.46 L 211.34 51.00 L 211.59 50.00 L 212.00 49.23 L 212.17 49.00 L 212.53 48.00 L 212.70 47.00 L 213.00 46.52 L 213.32 46.00 L 213.53 45.00 L 213.56 44.00 L 213.63 43.00 L 213.65 42.00 L 213.63 41.00 L 213.55 40.00 L 213.00 39.45 L 212.00 39.31 L 211.00 39.16 L 210.00 39.11 L 209.00 39.20 L 208.00 39.26 L 207.00 39.28 L 206.00 39.35 L 205.00 39.43 L 204.00 39.48 L 203.00 39.56 Z M 133.00 49.75 L 132.29 50.00 L 132.00 50.11 L 131.00 50.34 L 130.00 50.41 L 129.00 50.45 L 128.00 50.74 L 127.61 51.00 L 127.00 51.35 L 126.00 51.54 L 125.33 52.00 L 125.00 52.28 L 124.00 52.48 L 123.00 52.71 L 122.45 53.00 L 122.00 53.25 L 121.00 53.51 L 120.32 54.00 L 120.00 54.28 L 119.00 54.52 L 118.38 55.00 L 118.00 55.34 L 117.00 55.85 L 116.83 56.00 L 116.00 56.46 L 115.22 57.00 L 115.00 57.22 L 114.00 57.62 L 113.57 58.00 L 113.00 58.43 L 112.25 59.00 L 112.00 59.25 L 111.00 59.73 L 110.71 60.00 L 110.00 60.46 L 109.34 61.00 L 109.00 61.33 L 108.03 62.00 L 108.00 62.03 L 107.00 62.61 L 106.57 63.00 L 106.00 63.45 L 105.37 64.00 L 105.00 64.36 L 104.28 65.00 L 104.00 65.28 L 103.08 66.00 L 103.00 66.08 L 102.00 66.71 L 101.71 67.00 L 101.00 67.62 L 100.56 68.00 L 100.00 68.42 L 99.37 69.00 L 99.00 69.37 L 98.38 70.00 L 98.00 70.38 L 97.35 71.00 L 97.00 71.35 L 96.37 72.00 L 96.00 72.37 L 95.40 73.00 L 95.00 73.40 L 94.43 74.00 L 94.00 74.49 L 93.54 75.00 L 93.00 75.67 L 92.68 76.00 L 92.00 76.78 L 91.77 77.00 L 91.00 77.54 L 90.50 78.00 L 90.00 78.51 L 89.56 79.00 L 89.00 79.70 L 88.72 80.00 L 88.16 81.00 L 88.00 81.16 L 87.34 82.00 L 87.00 82.36 L 86.48 83.00 L 86.06 84.00 L 86.00 84.06 L 85.38 85.00 L 85.00 85.39 L 84.44 86.00 L 84.00 86.62 L 83.68 87.00 L 83.22 88.00 L 83.00 88.22 L 82.46 89.00 L 82.16 90.00 L 82.00 90.20 L 81.56 91.00 L 81.17 92.00 L 81.00 92.17 L 80.46 93.00 L 80.10 94.00 L 80.00 94.10 L 79.46 95.00 L 79.00 96.00 L 78.48 97.00 L 78.43 98.00 L 78.24 99.00 L 78.00 99.53 L 77.78 100.00 L 77.41 101.00 L 77.00 101.83 L 76.87 102.00 L 76.66 103.00 L 76.73 104.00 L 76.86 105.00 L 76.64 106.00 L 76.65 107.00 L 77.00 107.48 L 77.83 108.00 L 78.00 108.11 L 79.00 108.06 L 79.53 108.00 L 80.00 107.94 L 81.00 107.66 L 82.00 107.40 L 82.74 107.00 L 83.00 106.83 L 84.00 106.51 L 84.85 106.00 L 85.00 105.89 L 86.00 105.43 L 86.80 105.00 L 87.00 104.86 L 88.00 104.29 L 88.37 104.00 L 89.00 103.59 L 90.00 103.17 L 90.22 103.00 L 91.00 102.51 L 91.70 102.00 L 92.00 101.76 L 93.00 101.20 L 93.24 101.00 L 94.00 100.52 L 94.80 100.00 L 95.00 99.83 L 96.00 99.37 L 96.44 99.00 L 97.00 98.56 L 97.65 98.00 L 98.00 97.69 L 99.00 97.07 L 99.08 97.00 L 100.00 96.46 L 100.66 96.00 L 101.00 95.74 L 102.00 95.04 L 102.05 95.00 L 103.00 94.45 L 103.59 94.00 L 104.00 93.68 L 104.97 93.00 L 105.00 92.97 L 106.00 92.31 L 106.35 92.00 L 107.00 91.51 L 107.60 91.00 L 108.00 90.65 L 109.00 90.00 L 110.00 89.33 L 110.36 89.00 L 111.00 88.50 L 111.62 88.00 L 112.00 87.68 L 112.97 87.00 L 113.00 86.97 L 114.00 86.29 L 114.32 86.00 L 115.00 85.50 L 115.60 85.00 L 116.00 84.65 L 116.92 84.00 L 117.00 83.92 L 118.00 83.32 L 118.37 83.00 L 119.00 82.54 L 119.73 82.00 L 120.00 81.76 L 121.00 81.18 L 121.19 81.00 L 122.00 80.46 L 122.52 80.00 L 123.00 79.59 L 123.73 79.00 L 124.00 78.74 L 125.00 78.04 L 125.04 78.00 L 126.00 77.36 L 126.44 77.00 L 127.00 76.59 L 127.91 76.00 L 128.00 75.92 L 129.00 75.38 L 129.44 75.00 L 130.00 74.56 L 130.66 74.00 L 131.00 73.68 L 132.00 73.20 L 132.22 73.00 L 133.00 72.45 L 133.51 72.00 L 134.00 71.60 L 134.94 71.00 L 135.00 70.94 L 136.00 70.27 L 136.29 70.00 L 137.00 69.50 L 138.00 69.00 L 139.00 68.34 L 139.36 68.00 L 140.00 67.53 L 140.71 67.00 L 141.00 66.72 L 142.00 66.33 L 142.38 66.00 L 143.00 65.57 L 143.67 65.00 L 144.00 64.67 L 145.00 64.07 L 145.07 64.00 L 146.00 63.07 L 146.06 63.00 L 146.52 62.00 L 146.64 61.00 L 147.00 60.11 L 147.06 60.00 L 147.34 59.00 L 147.44 58.00 L 147.51 57.00 L 147.50 56.00 L 147.42 55.00 L 147.40 54.00 L 147.00 53.00 L 146.57 52.00 L 146.00 51.29 L 145.71 51.00 L 145.00 50.42 L 144.30 50.00 L 144.00 49.75 L 143.00 49.47 L 142.00 49.45 L 141.00 49.37 L 140.00 49.25 L 139.00 49.26 L 138.00 49.24 L 137.00 49.28 L 136.00 49.32 L 135.00 49.39 L 134.00 49.46 L 133.00 49.75 Z M 324.00 66.64 L 325.00 66.46 L 326.00 66.66 L 326.34 67.00 L 326.75 68.00 L 327.00 68.32 L 327.42 69.00 L 327.44 70.00 L 327.11 71.00 L 327.00 71.12 L 326.44 72.00 L 326.00 72.57 L 325.63 73.00 L 325.00 74.00 L 324.44 75.00 L 324.00 75.60 L 323.66 76.00 L 323.28 77.00 L 323.00 77.30 L 322.46 78.00 L 322.00 78.59 L 321.65 79.00 L 321.16 80.00 L 321.00 80.17 L 320.44 81.00 L 320.00 81.56 L 319.62 82.00 L 319.15 83.00 L 319.00 83.16 L 318.44 84.00 L 318.00 84.58 L 317.64 85.00 L 317.25 86.00 L 317.00 86.28 L 316.51 87.00 L 316.03 88.00 L 316.00 88.03 L 315.39 89.00 L 315.00 89.46 L 314.56 90.00 L 314.00 90.91 L 313.92 91.00 L 313.00 91.86 L 312.85 92.00 L 312.11 93.00 L 312.00 93.12 L 311.47 94.00 L 311.00 94.90 L 310.92 95.00 L 310.48 96.00 L 310.00 96.61 L 309.65 97.00 L 309.20 98.00 L 309.00 98.23 L 308.49 99.00 L 308.00 99.71 L 307.74 100.00 L 307.33 101.00 L 307.00 101.42 L 306.58 102.00 L 306.15 103.00 L 306.00 103.16 L 305.45 104.00 L 305.00 104.66 L 304.72 105.00 L 304.38 106.00 L 304.00 106.50 L 303.59 107.00 L 303.05 108.00 L 303.00 108.05 L 302.47 109.00 L 302.00 109.71 L 301.75 110.00 L 301.39 111.00 L 301.00 111.53 L 300.63 112.00 L 300.31 113.00 L 300.00 113.43 L 299.61 114.00 L 299.10 115.00 L 299.00 115.11 L 298.48 116.00 L 298.00 116.90 L 297.92 117.00 L 297.44 118.00 L 297.00 119.00 L 296.45 120.00 L 296.00 120.53 L 295.58 121.00 L 295.00 121.86 L 294.87 122.00 L 294.39 123.00 L 294.00 123.54 L 293.65 124.00 L 293.33 125.00 L 293.00 125.42 L 292.58 126.00 L 292.16 127.00 L 292.00 127.19 L 291.53 128.00 L 291.27 129.00 L 291.00 129.32 L 290.52 130.00 L 290.00 130.71 L 289.75 131.00 L 289.46 132.00 L 289.31 133.00 L 289.00 133.38 L 288.54 134.00 L 288.00 134.65 L 287.68 135.00 L 287.25 136.00 L 287.00 136.30 L 286.55 137.00 L 286.34 138.00 L 286.00 138.78 L 285.87 139.00 L 285.50 140.00 L 285.25 141.00 L 285.00 141.99 L 285.00 142.00 L 285.01 142.00 L 286.00 141.71 L 287.00 141.23 L 287.24 141.00 L 288.00 140.22 L 288.22 140.00 L 289.00 139.30 L 289.30 139.00 L 290.00 138.29 L 290.29 138.00 L 291.00 137.33 L 291.33 137.00 L 292.00 136.38 L 292.40 136.00 L 293.00 135.43 L 293.47 135.00 L 294.00 134.52 L 294.56 134.00 L 295.00 133.58 L 295.60 133.00 L 296.00 132.62 L 296.70 132.00 L 297.00 131.72 L 297.95 131.00 L 298.00 130.95 L 299.00 130.06 L 299.07 130.00 L 300.00 129.26 L 300.30 129.00 L 301.00 128.50 L 301.63 128.00 L 302.00 127.67 L 302.79 127.00 L 303.00 126.79 L 304.00 126.28 L 304.36 126.00 L 305.00 125.55 L 306.00 125.31 L 307.00 125.42 L 307.87 126.00 L 308.00 126.13 L 308.63 127.00 L 309.00 127.56 L 309.31 128.00 L 309.37 129.00 L 309.00 129.71 L 308.81 130.00 L 308.50 131.00 L 308.32 132.00 L 308.00 132.40 L 307.57 133.00 L 307.18 134.00 L 307.00 134.20 L 306.52 135.00 L 306.15 136.00 L 306.00 136.17 L 305.52 137.00 L 305.16 138.00 L 305.00 138.19 L 304.54 139.00 L 304.35 140.00 L 304.00 140.57 L 303.70 141.00 L 303.60 142.00 L 304.00 142.40 L 305.00 142.50 L 306.00 142.48 L 307.00 142.41 L 307.84 142.00 L 308.00 141.89 L 309.00 141.42 L 309.74 141.00 L 310.00 140.79 L 311.00 140.39 L 311.59 140.00 L 312.00 139.68 L 313.00 139.25 L 313.33 139.00 L 314.00 138.55 L 314.81 138.00 L 315.00 137.84 L 316.00 137.38 L 316.56 137.00 L 317.00 136.66 L 318.00 136.14 L 318.20 136.00 L 319.00 135.57 L 319.82 135.00 L 320.00 134.84 L 321.00 134.35 L 321.46 134.00 L 322.00 133.59 L 323.00 133.10 L 323.12 133.00 L 324.00 132.49 L 324.75 132.00 L 325.00 131.79 L 326.00 131.35 L 326.44 131.00 L 327.00 130.56 L 327.88 130.00 L 328.00 129.90 L 329.00 129.41 L 329.68 129.00 L 330.00 128.75 L 331.00 128.32 L 331.41 128.00 L 332.00 127.56 L 333.00 127.00 L 334.00 126.42 L 334.67 126.00 L 335.00 125.73 L 336.00 125.34 L 336.51 125.00 L 337.00 124.66 L 338.00 124.30 L 338.40 124.00 L 339.00 123.59 L 340.00 123.10 L 340.13 123.00 L 341.00 122.53 L 342.00 122.00 L 343.00 121.42 L 343.69 121.00 L 344.00 120.75 L 345.00 120.37 L 345.56 120.00 L 346.00 119.67 L 347.00 119.35 L 347.49 119.00 L 348.00 118.63 L 349.00 118.32 L 349.46 118.00 L 350.00 117.62 L 351.00 117.23 L 351.31 117.00 L 352.00 116.58 L 353.00 116.35 L 353.49 116.00 L 354.00 115.62 L 355.00 115.30 L 355.43 115.00 L 356.00 114.62 L 357.00 114.27 L 357.41 114.00 L 358.00 113.63 L 359.00 113.34 L 359.61 113.00 L 360.00 112.75 L 361.00 112.41 L 361.93 112.00 L 362.00 111.95 L 363.00 111.47 L 364.00 111.34 L 364.73 111.00 L 365.00 110.84 L 366.00 110.42 L 366.96 110.00 L 367.00 109.97 L 368.00 109.46 L 369.00 109.56 L 369.53 110.00 L 369.00 110.40 L 368.10 111.00 L 368.00 111.08 L 367.00 111.45 L 366.00 111.90 L 365.87 112.00 L 365.00 112.49 L 364.00 112.84 L 363.80 113.00 L 363.00 113.50 L 362.10 114.00 L 362.00 114.08 L 361.00 114.60 L 360.52 115.00 L 360.00 115.41 L 359.00 115.79 L 358.71 116.00 L 358.00 116.43 L 357.13 117.00 L 357.00 117.11 L 356.00 117.66 L 355.48 118.00 L 355.00 118.33 L 354.00 118.70 L 353.46 119.00 L 353.00 119.27 L 352.00 119.69 L 351.60 120.00 L 351.00 120.48 L 350.45 121.00 L 350.00 121.43 L 349.25 122.00 L 349.00 122.22 L 348.00 122.70 L 347.54 123.00 L 347.00 123.35 L 346.00 123.84 L 345.77 124.00 L 345.00 124.44 L 344.00 124.90 L 343.85 125.00 L 343.00 125.44 L 342.03 126.00 L 342.00 126.03 L 341.00 126.59 L 340.38 127.00 L 340.00 127.27 L 339.00 127.70 L 338.59 128.00 L 338.00 128.41 L 337.00 128.84 L 336.79 129.00 L 336.00 129.49 L 335.19 130.00 L 335.00 130.15 L 334.00 130.62 L 333.35 131.00 L 333.00 131.25 L 332.00 131.75 L 331.70 132.00 L 331.00 132.52 L 330.34 133.00 L 330.00 133.27 L 329.00 133.86 L 328.83 134.00 L 328.00 134.54 L 327.30 135.00 L 327.00 135.24 L 326.00 135.77 L 325.71 136.00 L 325.00 136.47 L 324.18 137.00 L 324.00 137.15 L 323.00 137.75 L 322.65 138.00 L 322.00 138.42 L 321.13 139.00 L 321.00 139.11 L 320.00 139.64 L 319.45 140.00 L 319.00 140.33 L 318.30 141.00 L 318.00 141.33 L 317.49 142.00 L 317.00 142.52 L 316.35 143.00 L 316.00 143.28 L 315.00 143.70 L 314.61 144.00 L 314.00 144.44 L 313.00 144.87 L 312.84 145.00 L 312.00 145.50 L 311.00 145.86 L 310.77 146.00 L 310.00 146.39 L 309.00 146.72 L 308.35 147.00 L 308.00 147.18 L 307.00 147.55 L 306.00 147.69 L 305.00 147.70 L 304.00 147.66 L 303.00 147.41 L 302.35 147.00 L 302.00 146.75 L 301.00 146.18 L 300.82 146.00 L 300.10 145.00 L 300.00 144.89 L 299.50 144.00 L 299.21 143.00 L 299.00 142.30 L 298.90 142.00 L 299.00 141.50 L 299.10 141.00 L 299.41 140.00 L 299.54 139.00 L 299.89 138.00 L 300.00 137.86 L 300.44 137.00 L 300.50 136.00 L 300.00 135.50 L 299.00 135.59 L 298.42 136.00 L 298.00 136.36 L 297.29 137.00 L 297.00 137.28 L 296.26 138.00 L 296.00 138.25 L 295.24 139.00 L 295.00 139.24 L 294.24 140.00 L 294.00 140.24 L 293.24 141.00 L 293.00 141.24 L 292.24 142.00 L 292.00 142.24 L 291.22 143.00 L 291.00 143.22 L 290.24 144.00 L 290.00 144.24 L 289.24 145.00 L 289.00 145.24 L 288.22 146.00 L 288.00 146.22 L 287.22 147.00 L 287.00 147.22 L 286.21 148.00 L 286.00 148.21 L 285.00 149.00 L 284.00 149.70 L 283.69 150.00 L 283.00 150.73 L 282.00 150.94 L 281.00 150.65 L 280.00 150.55 L 279.22 150.00 L 279.00 149.80 L 278.43 149.00 L 278.00 148.44 L 277.65 148.00 L 277.54 147.00 L 277.69 146.00 L 278.00 145.52 L 278.32 145.00 L 278.52 144.00 L 278.90 143.00 L 279.00 142.88 L 279.46 142.00 L 279.75 141.00 L 280.00 140.72 L 280.47 140.00 L 280.90 139.00 L 281.00 138.89 L 281.50 138.00 L 282.00 137.00 L 282.52 136.00 L 283.00 135.16 L 283.14 135.00 L 283.56 134.00 L 284.00 133.30 L 284.25 133.00 L 284.62 132.00 L 285.00 131.53 L 285.42 131.00 L 285.82 130.00 L 286.00 129.81 L 286.52 129.00 L 287.00 128.22 L 287.19 128.00 L 287.55 127.00 L 288.00 126.31 L 288.27 126.00 L 288.67 125.00 L 289.00 124.63 L 289.46 124.00 L 289.85 123.00 L 290.00 122.84 L 290.52 122.00 L 291.00 121.24 L 291.21 121.00 L 291.62 120.00 L 292.00 119.54 L 292.42 119.00 L 292.72 118.00 L 293.00 117.69 L 293.47 117.00 L 293.95 116.00 L 294.00 115.95 L 294.55 115.00 L 295.00 114.29 L 295.25 114.00 L 295.59 113.00 L 296.00 112.46 L 296.38 112.00 L 296.77 111.00 L 297.00 110.75 L 297.51 110.00 L 298.00 109.07 L 298.06 109.00 L 298.54 108.00 L 299.00 107.36 L 299.33 107.00 L 299.67 106.00 L 300.00 105.61 L 300.44 105.00 L 300.90 104.00 L 301.00 103.89 L 301.52 103.00 L 302.00 102.20 L 302.18 102.00 L 302.59 101.00 L 303.00 100.47 L 303.38 100.00 L 303.75 99.00 L 304.00 98.72 L 304.47 98.00 L 304.95 97.00 L 305.00 96.95 L 305.54 96.00 L 306.00 95.29 L 306.26 95.00 L 306.64 94.00 L 307.00 93.57 L 307.44 93.00 L 307.95 92.00 L 308.00 91.95 L 308.50 91.00 L 308.74 90.00 L 309.00 89.74 L 309.53 89.00 L 309.00 88.01 L 308.11 89.00 L 308.00 89.11 L 307.00 89.62 L 306.51 90.00 L 306.00 90.41 L 305.36 91.00 L 305.00 91.36 L 304.45 92.00 L 304.00 92.53 L 303.58 93.00 L 303.00 93.65 L 302.66 94.00 L 302.00 94.93 L 301.94 95.00 L 301.27 96.00 L 301.00 96.29 L 300.41 97.00 L 300.00 97.41 L 299.23 98.00 L 299.00 98.21 L 298.27 99.00 L 298.00 99.30 L 297.51 100.00 L 297.00 100.68 L 296.70 101.00 L 296.25 102.00 L 296.00 102.30 L 295.52 103.00 L 295.00 103.56 L 294.47 104.00 L 294.00 104.38 L 293.35 105.00 L 293.00 105.36 L 292.46 106.00 L 292.00 106.54 L 291.57 107.00 L 291.00 107.61 L 290.62 108.00 L 290.00 108.80 L 289.82 109.00 L 289.35 110.00 L 289.00 110.38 L 288.48 111.00 L 288.00 111.62 L 287.65 112.00 L 287.00 112.83 L 286.84 113.00 L 286.25 114.00 L 286.00 114.26 L 285.38 115.00 L 285.00 115.46 L 284.58 116.00 L 284.00 116.93 L 283.94 117.00 L 283.23 118.00 L 283.00 118.25 L 282.46 119.00 L 282.00 119.77 L 281.81 120.00 L 281.49 121.00 L 281.18 122.00 L 281.00 122.19 L 280.00 123.00 L 279.03 124.00 L 279.00 124.03 L 278.29 125.00 L 278.00 125.32 L 277.47 126.00 L 277.00 126.69 L 276.75 127.00 L 276.41 128.00 L 276.00 128.62 L 275.70 129.00 L 275.18 130.00 L 275.00 130.19 L 274.46 131.00 L 274.00 131.70 L 273.75 132.00 L 273.45 133.00 L 273.00 133.85 L 272.87 134.00 L 272.45 135.00 L 272.25 136.00 L 272.10 137.00 L 272.11 138.00 L 272.33 139.00 L 272.52 140.00 L 272.79 141.00 L 273.00 141.43 L 273.27 142.00 L 273.46 143.00 L 273.52 144.00 L 273.53 145.00 L 273.53 146.00 L 273.53 147.00 L 273.48 148.00 L 273.41 149.00 L 273.00 149.97 L 272.98 150.00 L 272.52 151.00 L 272.20 152.00 L 272.00 152.23 L 271.50 153.00 L 271.00 153.77 L 270.78 154.00 L 270.00 154.93 L 269.94 155.00 L 269.27 156.00 L 269.00 156.28 L 268.37 157.00 L 268.00 157.38 L 267.37 158.00 L 267.00 158.36 L 266.35 159.00 L 266.00 159.35 L 265.12 160.00 L 265.00 160.12 L 264.00 160.87 L 263.87 161.00 L 263.00 161.67 L 262.56 162.00 L 262.00 162.41 L 261.00 162.81 L 260.70 163.00 L 260.00 163.38 L 259.16 164.00 L 259.00 164.15 L 258.00 164.57 L 257.00 164.59 L 256.00 164.51 L 255.02 164.00 L 255.00 163.98 L 254.00 163.15 L 253.85 163.00 L 253.38 162.00 L 253.39 161.00 L 253.55 160.00 L 254.00 159.12 L 254.10 159.00 L 254.50 158.00 L 254.92 157.00 L 255.00 156.92 L 255.50 156.00 L 256.00 155.09 L 256.08 155.00 L 256.53 154.00 L 257.00 153.17 L 257.14 153.00 L 257.54 152.00 L 258.00 151.34 L 258.30 151.00 L 258.66 150.00 L 259.00 149.58 L 259.43 149.00 L 260.00 148.07 L 260.06 148.00 L 260.60 147.00 L 261.00 146.49 L 261.39 146.00 L 261.72 145.00 L 262.00 144.69 L 262.49 144.00 L 263.00 143.18 L 263.16 143.00 L 263.59 142.00 L 264.00 141.46 L 264.37 141.00 L 264.77 140.00 L 265.00 139.75 L 265.50 139.00 L 266.00 138.16 L 266.14 138.00 L 266.49 137.00 L 266.49 136.00 L 266.25 135.00 L 266.00 134.71 L 265.54 134.00 L 265.00 133.28 L 264.70 133.00 L 264.00 132.54 L 263.00 132.64 L 262.00 132.90 L 261.78 133.00 L 261.00 133.29 L 260.00 133.56 L 259.00 133.60 L 258.49 134.00 L 258.00 134.50 L 257.60 135.00 L 257.15 136.00 L 257.00 136.17 L 256.50 137.00 L 256.03 138.00 L 256.00 138.03 L 255.51 139.00 L 255.10 140.00 L 255.00 140.11 L 254.43 141.00 L 254.00 141.52 L 253.57 142.00 L 253.00 142.64 L 252.66 143.00 L 252.00 144.00 L 251.27 145.00 L 251.00 145.28 L 250.42 146.00 L 250.00 146.45 L 249.48 147.00 L 249.00 147.50 L 248.50 148.00 L 248.00 148.51 L 247.50 149.00 L 247.00 149.47 L 246.36 150.00 L 246.00 150.32 L 245.12 151.00 L 245.00 151.12 L 244.00 151.72 L 243.39 152.00 L 243.00 152.21 L 242.00 152.52 L 241.00 152.29 L 240.51 152.00 L 240.00 151.72 L 239.00 151.16 L 238.84 151.00 L 238.00 150.00 L 237.48 149.00 L 237.23 148.00 L 237.16 147.00 L 237.25 146.00 L 237.42 145.00 L 237.00 144.58 L 236.00 144.52 L 235.19 145.00 L 235.00 145.18 L 234.21 146.00 L 234.00 146.21 L 233.00 146.94 L 232.93 147.00 L 232.00 147.64 L 231.61 148.00 L 231.00 148.49 L 230.36 149.00 L 230.00 149.32 L 229.35 150.00 L 229.00 150.37 L 228.47 151.00 L 228.00 151.56 L 227.57 152.00 L 227.00 152.60 L 226.60 153.00 L 226.00 153.60 L 225.58 154.00 L 225.00 154.52 L 224.36 155.00 L 224.00 155.30 L 223.00 155.60 L 222.00 155.68 L 221.00 155.55 L 220.18 155.00 L 220.00 154.84 L 219.06 154.00 L 219.00 153.94 L 218.02 153.00 L 218.00 152.98 L 217.30 152.00 L 217.00 151.65 L 216.57 151.00 L 216.42 150.00 L 216.30 149.00 L 216.00 148.01 L 216.00 148.00 L 215.61 147.00 L 215.00 146.55 L 214.39 147.00 L 214.00 147.36 L 213.34 148.00 L 213.00 148.34 L 212.30 149.00 L 212.00 149.30 L 211.32 150.00 L 211.00 150.32 L 210.29 151.00 L 210.00 151.29 L 209.08 152.00 L 209.00 152.08 L 208.00 152.84 L 207.83 153.00 L 207.00 153.73 L 206.70 154.00 L 206.00 154.53 L 205.26 155.00 L 205.00 155.21 L 204.00 155.53 L 203.00 155.42 L 202.19 155.00 L 202.00 154.87 L 201.00 154.08 L 200.92 154.00 L 200.16 153.00 L 200.00 152.81 L 199.55 152.00 L 199.55 151.00 L 199.72 150.00 L 200.00 149.51 L 200.28 149.00 L 200.50 148.00 L 200.60 147.00 L 201.00 146.23 L 201.16 146.00 L 201.33 145.00 L 201.00 144.67 L 200.00 144.79 L 199.77 145.00 L 199.00 145.76 L 198.76 146.00 L 198.00 146.76 L 197.76 147.00 L 197.00 147.80 L 196.80 148.00 L 196.03 149.00 L 196.00 149.03 L 195.23 150.00 L 195.00 150.24 L 194.27 151.00 L 194.00 151.28 L 193.30 152.00 L 193.00 152.30 L 192.32 153.00 L 192.00 153.32 L 191.32 154.00 L 191.00 154.32 L 190.32 155.00 L 190.00 155.32 L 189.29 156.00 L 189.00 156.29 L 188.21 157.00 L 188.00 157.21 L 187.00 157.63 L 186.00 157.77 L 185.00 157.67 L 184.00 157.30 L 183.68 157.00 L 183.00 156.39 L 182.64 156.00 L 182.21 155.00 L 182.00 154.30 L 181.90 154.00 L 182.00 153.81 L 182.32 153.00 L 182.44 152.00 L 182.50 151.00 L 182.57 150.00 L 182.84 149.00 L 183.00 148.73 L 183.34 148.00 L 183.00 147.66 L 182.00 147.57 L 181.49 148.00 L 181.00 148.48 L 180.48 149.00 L 180.00 149.48 L 179.49 150.00 L 179.00 150.53 L 178.55 151.00 L 178.00 151.61 L 177.61 152.00 L 177.00 152.60 L 176.60 153.00 L 176.00 153.64 L 175.67 154.00 L 175.00 154.91 L 174.92 155.00 L 174.11 156.00 L 174.00 156.12 L 173.37 157.00 L 173.00 157.40 L 172.50 158.00 L 172.00 158.81 L 171.84 159.00 L 171.33 160.00 L 171.00 160.36 L 170.44 161.00 L 170.00 161.46 L 169.48 162.00 L 169.00 162.51 L 168.51 163.00 L 168.00 163.51 L 167.47 164.00 L 167.00 164.42 L 166.29 165.00 L 166.00 165.28 L 165.05 166.00 L 165.00 166.05 L 164.00 166.55 L 163.00 166.60 L 162.00 166.54 L 161.00 166.22 L 160.72 166.00 L 160.00 165.54 L 159.48 165.00 L 159.00 164.46 L 158.60 164.00 L 158.36 163.00 L 158.19 162.00 L 158.21 161.00 L 158.38 160.00 L 158.45 159.00 L 158.51 158.00 L 158.57 157.00 L 158.73 156.00 L 158.99 155.00 L 158.00 154.64 L 157.62 155.00 L 157.00 155.71 L 156.72 156.00 L 156.03 157.00 L 156.00 157.03 L 155.37 158.00 L 155.00 158.42 L 154.51 159.00 L 154.00 159.68 L 153.71 160.00 L 153.03 161.00 L 153.00 161.03 L 152.32 162.00 L 152.00 162.34 L 151.47 163.00 L 151.00 163.59 L 150.62 164.00 L 150.00 164.71 L 149.72 165.00 L 149.10 166.00 L 149.00 166.10 L 148.40 167.00 L 148.00 167.82 L 147.87 168.00 L 147.45 169.00 L 147.00 169.56 L 146.58 170.00 L 146.00 170.60 L 145.52 171.00 L 145.00 171.41 L 144.00 171.90 L 143.80 172.00 L 143.00 172.33 L 142.00 172.51 L 141.00 172.51 L 140.00 172.22 L 139.70 172.00 L 139.00 171.61 L 138.08 171.00 L 138.00 170.92 L 137.14 170.00 L 137.00 169.84 L 136.52 169.00 L 136.39 168.00 L 136.39 167.00 L 136.47 166.00 L 136.54 165.00 L 136.68 164.00 L 137.00 163.42 L 137.25 163.00 L 137.50 162.00 L 137.63 161.00 L 138.00 160.27 L 138.18 160.00 L 138.51 159.00 L 138.72 158.00 L 139.00 157.51 L 139.28 157.00 L 139.51 156.00 L 139.82 155.00 L 140.00 154.79 L 140.44 154.00 L 140.59 153.00 L 141.00 152.33 L 141.25 152.00 L 141.53 151.00 L 141.84 150.00 L 142.00 149.82 L 142.48 149.00 L 142.89 148.00 L 143.00 147.87 L 143.47 147.00 L 143.80 146.00 L 144.00 145.77 L 144.48 145.00 L 144.92 144.00 L 145.00 143.92 L 145.53 143.00 L 146.00 142.32 L 146.29 142.00 L 146.64 141.00 L 147.00 140.56 L 147.42 140.00 L 148.00 139.02 L 148.02 139.00 L 148.72 138.00 L 149.00 137.71 L 149.70 137.00 L 150.00 136.70 L 150.67 136.00 L 151.00 135.66 L 151.65 135.00 L 152.00 134.65 L 152.66 134.00 L 153.00 133.67 L 153.74 133.00 L 154.00 132.75 L 154.85 132.00 L 155.00 131.85 L 156.00 131.28 L 156.35 131.00 L 157.00 130.53 L 157.91 130.00 L 158.00 129.92 L 159.00 129.36 L 159.56 129.00 L 160.00 128.68 L 161.00 128.31 L 161.47 128.00 L 162.00 127.65 L 163.00 127.36 L 163.63 127.00 L 164.00 126.75 L 165.00 126.43 L 166.00 126.25 L 166.72 126.00 L 167.00 125.89 L 168.00 125.48 L 169.00 125.48 L 170.00 125.48 L 171.00 125.85 L 171.26 126.00 L 172.00 126.33 L 173.00 126.78 L 173.24 127.00 L 174.00 127.55 L 174.50 128.00 L 175.00 128.49 L 175.45 129.00 L 176.00 129.76 L 176.22 130.00 L 176.51 131.00 L 176.52 132.00 L 176.36 133.00 L 176.00 133.72 L 175.82 134.00 L 175.52 135.00 L 175.10 136.00 L 175.00 136.11 L 174.08 137.00 L 174.00 137.08 L 173.00 137.65 L 172.05 138.00 L 172.00 138.03 L 171.00 138.22 L 170.47 139.00 L 170.00 139.65 L 169.68 140.00 L 169.34 141.00 L 169.00 141.44 L 168.61 142.00 L 168.42 143.00 L 168.00 143.92 L 167.94 144.00 L 167.52 145.00 L 167.18 146.00 L 167.00 146.21 L 166.55 147.00 L 166.39 148.00 L 166.00 148.77 L 165.84 149.00 L 165.52 150.00 L 165.38 151.00 L 165.00 151.81 L 164.87 152.00 L 164.59 153.00 L 164.48 154.00 L 164.31 155.00 L 164.00 155.54 L 163.73 156.00 L 163.53 157.00 L 163.46 158.00 L 163.34 159.00 L 163.51 160.00 L 164.00 160.37 L 164.51 160.00 L 165.00 159.61 L 165.59 159.00 L 166.00 158.56 L 166.50 158.00 L 167.00 157.45 L 167.46 157.00 L 168.00 156.48 L 168.48 156.00 L 169.00 155.46 L 169.44 155.00 L 170.00 154.41 L 170.41 154.00 L 171.00 153.39 L 171.38 153.00 L 172.00 152.37 L 172.35 152.00 L 173.00 151.14 L 173.13 151.00 L 173.95 150.00 L 174.00 149.95 L 174.97 149.00 L 175.00 148.97 L 175.89 148.00 L 176.00 147.88 L 176.84 147.00 L 177.00 146.83 L 177.63 146.00 L 178.00 145.60 L 178.56 145.00 L 179.00 144.56 L 179.54 144.00 L 180.00 143.52 L 180.48 143.00 L 181.00 142.40 L 181.39 142.00 L 182.00 141.34 L 182.33 141.00 L 183.00 140.27 L 183.27 140.00 L 184.00 139.26 L 184.26 139.00 L 185.00 138.20 L 185.20 138.00 L 186.00 137.19 L 186.19 137.00 L 187.00 136.19 L 187.19 136.00 L 188.00 135.20 L 188.20 135.00 L 189.00 134.24 L 189.24 134.00 L 190.00 133.24 L 190.26 133.00 L 191.00 132.46 L 192.00 132.59 L 192.44 133.00 L 193.00 133.53 L 193.45 134.00 L 194.00 134.74 L 194.23 135.00 L 194.35 136.00 L 194.00 136.51 L 193.64 137.00 L 193.20 138.00 L 193.00 138.23 L 192.50 139.00 L 192.00 139.91 L 191.92 140.00 L 191.47 141.00 L 191.08 142.00 L 191.00 142.08 L 190.50 143.00 L 190.20 144.00 L 190.00 144.24 L 189.54 145.00 L 189.35 146.00 L 189.00 146.62 L 188.75 147.00 L 188.63 148.00 L 189.00 148.37 L 190.00 148.14 L 190.15 148.00 L 191.00 147.09 L 191.09 147.00 L 192.00 146.07 L 192.06 146.00 L 192.97 145.00 L 193.00 144.97 L 193.92 144.00 L 194.00 143.92 L 194.77 143.00 L 195.00 142.76 L 195.67 142.00 L 196.00 141.67 L 196.62 141.00 L 197.00 140.60 L 197.61 140.00 L 198.00 139.61 L 198.59 139.00 L 199.00 138.57 L 199.60 138.00 L 200.00 137.61 L 200.60 137.00 L 201.00 136.60 L 201.60 136.00 L 202.00 135.60 L 202.60 135.00 L 203.00 134.60 L 203.62 134.00 L 204.00 133.63 L 204.75 133.00 L 205.00 132.76 L 206.00 132.06 L 206.06 132.00 L 207.00 131.31 L 207.54 131.00 L 208.00 130.72 L 209.00 130.95 L 209.06 131.00 L 210.00 131.57 L 210.39 132.00 L 210.79 133.00 L 211.00 133.33 L 211.35 134.00 L 211.35 135.00 L 211.00 135.76 L 210.86 136.00 L 210.42 137.00 L 210.00 137.77 L 209.82 138.00 L 209.47 139.00 L 209.00 139.90 L 208.92 140.00 L 208.48 141.00 L 208.15 142.00 L 208.00 142.20 L 207.57 143.00 L 207.40 144.00 L 207.00 144.58 L 206.68 145.00 L 206.56 146.00 L 207.00 146.44 L 208.00 146.19 L 208.20 146.00 L 209.00 145.22 L 209.22 145.00 L 210.00 144.27 L 210.27 144.00 L 211.00 143.30 L 211.32 143.00 L 212.00 142.44 L 212.48 142.00 L 213.00 141.53 L 213.60 141.00 L 214.00 140.62 L 214.75 140.00 L 215.00 139.76 L 215.89 139.00 L 216.00 138.90 L 216.89 138.00 L 217.00 137.88 L 217.54 137.00 L 218.00 136.07 L 218.06 136.00 L 218.49 135.00 L 218.75 134.00 L 219.00 133.70 L 219.44 133.00 L 219.72 132.00 L 220.00 131.69 L 220.46 131.00 L 220.95 130.00 L 221.00 129.95 L 221.58 129.00 L 222.00 128.52 L 222.49 128.00 L 223.00 127.42 L 223.38 127.00 L 224.00 126.26 L 224.26 126.00 L 225.00 125.34 L 225.38 125.00 L 226.00 124.50 L 226.64 124.00 L 227.00 123.68 L 228.00 123.38 L 228.65 123.00 L 229.00 122.75 L 230.00 122.42 L 231.00 122.37 L 232.00 122.14 L 232.86 122.00 L 233.00 121.97 L 233.10 122.00 L 234.00 122.19 L 235.00 122.41 L 236.00 122.78 L 236.25 123.00 L 237.00 123.56 L 237.46 124.00 L 238.00 124.55 L 238.39 125.00 L 239.00 125.97 L 239.03 126.00 L 239.48 127.00 L 239.52 128.00 L 239.52 129.00 L 239.52 130.00 L 239.47 131.00 L 239.29 132.00 L 239.00 132.46 L 238.68 133.00 L 238.48 134.00 L 238.20 135.00 L 238.00 135.25 L 237.56 136.00 L 238.00 136.44 L 239.00 136.50 L 240.00 136.10 L 240.11 136.00 L 241.00 135.28 L 241.32 135.00 L 242.00 134.47 L 242.49 134.00 L 243.00 133.52 L 243.55 133.00 L 244.00 132.57 L 244.61 132.00 L 245.00 131.63 L 245.65 131.00 L 246.00 130.65 L 246.65 130.00 L 247.00 129.65 L 247.74 129.00 L 248.00 128.75 L 249.00 128.16 L 249.16 128.00 L 249.38 127.00 L 249.27 126.00 L 249.23 125.00 L 249.38 124.00 L 249.55 123.00 L 250.00 122.39 L 250.35 122.00 L 251.00 121.28 L 251.30 121.00 L 252.00 120.45 L 252.85 120.00 L 253.00 119.89 L 254.00 119.45 L 255.00 119.36 L 256.00 119.28 L 257.00 119.38 L 258.00 119.61 L 258.50 120.00 L 259.00 120.40 L 259.65 121.00 L 260.00 121.36 L 260.51 122.00 L 261.00 122.65 L 261.31 123.00 L 261.50 124.00 L 262.00 124.49 L 262.64 124.00 L 262.92 123.00 L 263.00 122.91 L 263.51 122.00 L 264.00 121.47 L 264.49 121.00 L 265.00 120.51 L 265.52 120.00 L 266.00 119.53 L 266.65 119.00 L 267.00 118.68 L 267.72 118.00 L 268.00 117.73 L 268.76 117.00 L 269.00 116.77 L 269.73 116.00 L 270.00 115.73 L 270.69 115.00 L 271.00 114.69 L 271.72 114.00 L 272.00 113.72 L 272.79 113.00 L 273.00 112.79 L 273.84 112.00 L 274.00 111.84 L 275.00 111.38 L 276.00 111.27 L 277.00 111.42 L 277.84 112.00 L 278.00 112.15 L 278.68 113.00 L 279.00 113.37 L 279.44 114.00 L 279.58 115.00 L 280.00 115.42 L 281.00 115.46 L 281.48 115.00 L 282.00 114.34 L 282.33 114.00 L 282.97 113.00 L 283.00 112.97 L 283.69 112.00 L 284.00 111.68 L 284.54 111.00 L 285.00 110.45 L 285.40 110.00 L 285.89 109.00 L 286.00 108.88 L 286.64 108.00 L 287.00 107.61 L 287.53 107.00 L 288.00 106.44 L 288.40 106.00 L 289.00 105.26 L 289.25 105.00 L 289.84 104.00 L 290.00 103.84 L 290.66 103.00 L 291.00 102.63 L 291.51 102.00 L 292.00 101.45 L 292.42 101.00 L 293.00 100.17 L 293.16 100.00 L 293.92 99.00 L 294.00 98.92 L 294.66 98.00 L 295.00 97.65 L 295.53 97.00 L 296.00 96.47 L 296.44 96.00 L 297.00 95.39 L 297.38 95.00 L 298.00 94.13 L 298.13 94.00 L 298.89 93.00 L 299.00 92.89 L 299.84 92.00 L 300.00 91.84 L 300.71 91.00 L 301.00 90.70 L 301.54 90.00 L 302.00 89.41 L 302.37 89.00 L 303.00 88.34 L 303.34 88.00 L 304.00 87.26 L 304.25 87.00 L 305.00 86.16 L 305.16 86.00 L 306.00 85.15 L 306.15 85.00 L 307.00 84.08 L 307.09 84.00 L 308.00 83.06 L 308.06 83.00 L 308.92 82.00 L 309.00 81.92 L 309.73 81.00 L 310.00 80.73 L 310.68 80.00 L 311.00 79.67 L 311.66 79.00 L 312.00 78.66 L 312.64 78.00 L 313.00 77.64 L 313.66 77.00 L 314.00 76.66 L 314.64 76.00 L 315.00 75.64 L 315.66 75.00 L 316.00 74.66 L 316.66 74.00 L 317.00 73.66 L 317.66 73.00 L 318.00 72.66 L 318.66 72.00 L 319.00 71.66 L 319.66 71.00 L 320.00 70.66 L 320.64 70.00 L 321.00 69.64 L 321.64 69.00 L 322.00 68.64 L 322.62 68.00 L 323.00 67.61 L 323.62 67.00 L 324.00 66.64 Z M 255.00 124.79 L 254.80 125.00 L 254.32 126.00 L 254.00 126.65 L 253.80 127.00 L 253.80 128.00 L 254.00 128.31 L 254.74 129.00 L 255.00 129.17 L 255.23 129.00 L 256.00 128.32 L 256.25 128.00 L 256.54 127.00 L 256.72 126.00 L 257.00 125.40 L 257.20 125.00 L 257.00 124.57 L 256.00 124.28 L 255.00 124.79 Z M 273.00 124.76 L 272.74 125.00 L 272.00 125.79 L 271.79 126.00 L 271.00 126.79 L 270.80 127.00 L 270.20 128.00 L 270.00 128.20 L 269.22 129.00 L 269.00 129.22 L 268.46 130.00 L 268.63 131.00 L 269.00 131.36 L 270.00 131.13 L 270.13 131.00 L 270.72 130.00 L 271.00 129.71 L 271.55 129.00 L 272.00 128.32 L 272.28 128.00 L 272.72 127.00 L 273.00 126.72 L 273.55 126.00 L 274.00 125.28 L 274.24 125.00 L 274.00 124.76 L 273.00 124.76 Z M 232.00 126.76 L 231.54 127.00 L 231.00 127.28 L 230.00 127.86 L 229.85 128.00 L 229.00 128.62 L 228.61 129.00 L 228.00 129.58 L 227.59 130.00 L 227.00 130.61 L 226.63 131.00 L 226.00 131.86 L 225.87 132.00 L 225.38 133.00 L 225.00 133.49 L 224.60 134.00 L 224.29 135.00 L 224.00 135.35 L 223.55 136.00 L 223.33 137.00 L 223.00 137.49 L 222.66 138.00 L 222.46 139.00 L 222.47 140.00 L 222.50 141.00 L 222.49 142.00 L 222.43 143.00 L 222.06 144.00 L 222.00 144.06 L 221.48 145.00 L 221.47 146.00 L 222.00 146.69 L 223.00 146.66 L 224.00 146.39 L 224.68 146.00 L 225.00 145.80 L 225.99 145.00 L 226.00 144.99 L 226.82 144.00 L 227.00 143.82 L 227.61 143.00 L 228.00 142.55 L 228.45 142.00 L 228.89 141.00 L 229.00 140.89 L 229.61 140.00 L 230.00 139.48 L 230.38 139.00 L 230.68 138.00 L 231.00 137.62 L 231.46 137.00 L 231.78 136.00 L 232.00 135.78 L 232.54 135.00 L 232.92 134.00 L 233.00 133.92 L 233.53 133.00 L 233.84 132.00 L 234.00 131.84 L 234.52 131.00 L 234.65 130.00 L 235.00 129.30 L 235.19 129.00 L 235.48 128.00 L 235.46 127.00 L 235.00 126.41 L 234.00 126.33 L 233.00 126.54 L 232.00 126.76 Z M 170.00 130.00 L 169.99 130.00 L 169.00 130.24 L 168.00 130.40 L 167.00 130.81 L 166.58 131.00 L 166.00 131.24 L 165.00 131.61 L 164.23 132.00 L 164.00 132.14 L 163.00 132.58 L 162.45 133.00 L 162.00 133.32 L 161.00 133.91 L 160.89 134.00 L 160.00 134.49 L 159.25 135.00 L 159.00 135.20 L 158.00 135.52 L 157.38 136.00 L 157.00 136.29 L 156.26 137.00 L 156.00 137.26 L 155.26 138.00 L 155.00 138.26 L 154.39 139.00 L 154.00 139.43 L 153.46 140.00 L 153.00 140.51 L 152.55 141.00 L 152.00 141.83 L 151.84 142.00 L 151.08 143.00 L 151.00 143.08 L 150.41 144.00 L 150.00 144.65 L 149.72 145.00 L 149.26 146.00 L 149.00 146.26 L 148.46 147.00 L 148.26 148.00 L 148.00 148.33 L 147.56 149.00 L 147.26 150.00 L 147.00 150.30 L 146.54 151.00 L 146.28 152.00 L 146.00 152.29 L 145.46 153.00 L 145.14 154.00 L 145.00 154.17 L 144.54 155.00 L 144.30 156.00 L 144.00 156.41 L 143.61 157.00 L 143.44 158.00 L 143.17 159.00 L 143.00 159.19 L 142.53 160.00 L 142.38 161.00 L 142.00 161.87 L 141.92 162.00 L 141.52 163.00 L 141.40 164.00 L 141.08 165.00 L 141.00 165.50 L 140.92 166.00 L 141.00 166.16 L 141.66 167.00 L 142.00 167.19 L 142.20 167.00 L 143.00 166.09 L 143.09 166.00 L 143.99 165.00 L 144.00 164.99 L 144.94 164.00 L 145.00 163.94 L 145.82 163.00 L 146.00 162.82 L 146.70 162.00 L 147.00 161.70 L 147.58 161.00 L 148.00 160.46 L 148.41 160.00 L 149.00 159.05 L 149.05 159.00 L 149.83 158.00 L 150.00 157.83 L 150.61 157.00 L 151.00 156.55 L 151.47 156.00 L 152.00 155.27 L 152.25 155.00 L 152.84 154.00 L 153.00 153.84 L 153.60 153.00 L 154.00 152.51 L 154.46 152.00 L 155.00 151.35 L 155.32 151.00 L 155.97 150.00 L 156.00 149.97 L 156.67 149.00 L 157.00 148.64 L 157.53 148.00 L 158.00 147.35 L 158.31 147.00 L 158.97 146.00 L 159.00 145.97 L 159.65 145.00 L 160.00 144.59 L 160.48 144.00 L 161.00 143.16 L 161.16 143.00 L 161.92 142.00 L 162.00 141.92 L 162.63 141.00 L 163.00 140.59 L 163.49 140.00 L 164.00 139.12 L 164.11 139.00 L 164.62 138.00 L 165.00 137.49 L 165.39 137.00 L 165.99 136.00 L 166.00 135.99 L 167.00 135.28 L 168.00 135.26 L 169.00 135.65 L 170.00 135.33 L 170.28 135.00 L 170.65 134.00 L 171.00 133.48 L 171.34 133.00 L 171.54 132.00 L 171.62 131.00 L 171.00 130.00 L 170.00 130.00 Z M 251.00 133.00 L 250.00 133.76 L 249.75 134.00 L 249.00 134.64 L 248.65 135.00 L 248.00 135.79 L 247.80 136.00 L 247.35 137.00 L 247.00 137.41 L 246.53 138.00 L 246.00 138.81 L 245.82 139.00 L 245.35 140.00 L 245.00 140.59 L 244.72 141.00 L 244.25 142.00 L 244.00 142.27 L 243.51 143.00 L 243.25 144.00 L 243.00 144.45 L 242.71 145.00 L 243.00 145.29 L 243.65 145.00 L 244.00 144.82 L 244.82 144.00 L 245.00 143.82 L 245.83 143.00 L 246.00 142.83 L 246.70 142.00 L 247.00 141.69 L 247.62 141.00 L 248.00 140.61 L 248.56 140.00 L 249.00 139.49 L 249.45 139.00 L 250.00 138.21 L 250.20 138.00 L 250.92 137.00 L 251.00 136.92 L 251.63 136.00 L 252.00 135.56 L 252.46 135.00 L 253.00 134.05 L 253.04 134.00 L 253.34 133.00 L 253.00 132.59 L 252.00 132.28 L 251.00 133.00 Z M 268.00 143.62 L 267.61 144.00 L 267.45 145.00 L 267.17 146.00 L 267.00 146.17 L 266.46 147.00 L 266.01 148.00 L 266.00 148.01 L 265.35 149.00 L 265.00 149.44 L 264.57 150.00 L 264.16 151.00 L 264.00 151.16 L 263.44 152.00 L 263.00 152.77 L 262.80 153.00 L 262.39 154.00 L 262.00 154.53 L 261.64 155.00 L 262.00 155.36 L 263.00 155.42 L 263.46 155.00 L 264.00 154.30 L 264.29 154.00 L 265.00 153.05 L 265.04 153.00 L 265.74 152.00 L 266.00 151.74 L 266.56 151.00 L 267.00 150.26 L 267.22 150.00 L 267.61 149.00 L 268.00 148.41 L 268.31 148.00 L 268.52 147.00 L 268.56 146.00 L 268.64 145.00 L 268.56 144.00 L 268.00 143.62 Z"/>
</svg>
